<svg xmlns="http://www.w3.org/2000/svg" xmlns:xlink="http://www.w3.org/1999/xlink" xml:space="preserve" width="512" height="512" viewBox="0 0 512 512"><defs><linearGradient id="b"><stop offset="0" style="stop-color:#fff;stop-opacity:1"/><stop offset=".618" style="stop-color:#fff;stop-opacity:1"/><stop offset=".732" style="stop-color:#fff;stop-opacity:0"/></linearGradient><linearGradient id="d"><stop offset=".268" style="stop-color:#000;stop-opacity:1"/><stop offset=".669" style="stop-color:#000;stop-opacity:0"/></linearGradient><linearGradient id="a"><stop offset="0" style="stop-color:#b40503;stop-opacity:1"/><stop offset=".256" style="stop-color:#fc0602;stop-opacity:1"/><stop offset=".395" style="stop-color:#ff6c05;stop-opacity:1"/><stop offset=".471" style="stop-color:#ffe00c;stop-opacity:1"/><stop offset=".539" style="stop-color:#67ff06;stop-opacity:1"/><stop offset=".595" style="stop-color:#05c365;stop-opacity:1"/><stop offset=".668" style="stop-color:#03a58b;stop-opacity:1"/><stop offset=".735" style="stop-color:#0276a6;stop-opacity:1"/><stop offset=".877" style="stop-color:#051986;stop-opacity:1"/><stop offset="1" style="stop-color:#73038f;stop-opacity:1"/></linearGradient><linearGradient xlink:href="#a" id="h" x1="573.979" x2="589.173" y1="97.298" y2="394.315" gradientUnits="userSpaceOnUse"/><linearGradient xlink:href="#b" id="g" x1="-196.807" x2="296.576" y1="248.816" y2="248.816" gradientTransform="translate(0 13.098)" gradientUnits="userSpaceOnUse"/><linearGradient xlink:href="#d" id="i" x1="219.749" x2="746.81" y1="250.48" y2="250.48" gradientTransform="matrix(.75683 0 0 .84323 61.708 31.068)" gradientUnits="userSpaceOnUse"/><filter id="j" width="1.196" height="1.123" x="-.103" y="-.058" style="color-interpolation-filters:sRGB"><feFlood flood-color="#000" flood-opacity="1" result="flood"/><feGaussianBlur in="SourceGraphic" result="blur" stdDeviation="8.108"/><feOffset dx="-2.9" dy="2.9" in="blur" result="offset"/><feComposite in="flood" in2="offset" operator="in" result="comp1"/><feComposite in="SourceGraphic" in2="comp1" result="comp2"/></filter><filter id="e" width=".648" height=".923" x=".157" y="-.054" style="color-interpolation-filters:sRGB"><feFlood flood-color="#000" flood-opacity=".7" result="result1"/><feGaussianBlur in="SourceGraphic" result="blur" stdDeviation="13.84"/><feOffset dx="-3.9" dy="3.9" in="blur" result="offset"/><feComposite in="result1" in2="offset" operator="in" result="comp1"/><feComposite in="SourceGraphic" in2="comp1" result="comp2"/></filter><clipPath id="f" clipPathUnits="userSpaceOnUse"><rect width="478.623" height="478.623" x="16.688" y="16.688" ry="108.457" style="display:inline;fill:#000;fill-opacity:1;stroke:none;stroke-width:67.369;stroke-linecap:round;stroke-linejoin:round;stroke-dasharray:none;stroke-opacity:1;paint-order:markers stroke fill"/></clipPath></defs><g style="filter:url(#e)"><g clip-path="url(#f)" transform="translate(56.742 56.742)scale(.77835)"><rect width="516.111" height="526.212" x="-1.028" y="-.153" ry="0" style="display:inline;fill:#000;fill-opacity:1;stroke:none;stroke-width:118.48;stroke-linecap:round;stroke-linejoin:round;stroke-dasharray:none;stroke-opacity:1;paint-order:markers stroke fill"/><path d="M296.576 240.003C-6.814 256.347-5.038 258.306-44.32 542.728c-13.105 94.889-152.486-212.696-152.486-325.457 0-112.762 137.199-328.655 152.486-234.094C-4.707 228.216-6.01 227.838 296.576 240.003" style="fill:url(#g);stroke-width:30.516;stroke-linecap:round;stroke-linejoin:round;paint-order:markers stroke fill" transform="rotate(-11.49 335.746 149.812)"/><path d="M239.324 226.906c324.548 54.373 323.628 55.603 361.473 273.345 16.403 94.374 294.527 41.513 267.464-237.142-9.936-102.304-38.075-178.004-73.102-231.516C710.498-97.747 585.595-97.463 580.221-29.92c-16.108 202.432-18.728 204.03-340.897 256.827" style="fill:url(#h);stroke-width:30.516;stroke-linecap:round;stroke-linejoin:round;paint-order:markers stroke fill" transform="rotate(9.269 -166.165 227.026)scale(.8424)"/><path d="M228.021-32.118h398.896v548.796H228.021z" style="fill:url(#i);fill-opacity:1;stroke:none;stroke-width:24.378;stroke-linecap:round;stroke-linejoin:round;stroke-dasharray:none;stroke-opacity:1;paint-order:markers stroke fill" transform="rotate(8.533)scale(1 .99954)skewX(-1.74)"/></g><rect width="372.538" height="372.538" x="71.181" y="68.281" ry="84.417" style="display:inline;fill:none;fill-opacity:1;stroke:#fff;stroke-width:10;stroke-linecap:round;stroke-linejoin:round;stroke-dasharray:none;stroke-opacity:.99872124;paint-order:markers stroke fill"/></g><text xml:space="preserve" x="98.344" y="473.381" style="font-style:italic;font-size:634.112px;font-family:NewComputerModern10;-inkscape-font-specification:&quot;NewComputerModern10, Italic&quot;;font-variant-ligatures:discretionary-ligatures;text-align:start;letter-spacing:-24.3834px;word-spacing:-32.5815px;writing-mode:lr-tb;direction:ltr;text-anchor:start;fill:#fff;fill-opacity:0;stroke:#000;stroke-width:13.182;stroke-linecap:round;stroke-linejoin:round;stroke-dasharray:none;stroke-opacity:0;paint-order:markers stroke fill;filter:url(#j);opacity:1"><tspan x="98.344" y="473.381" style="font-style:normal;font-variant:normal;font-weight:400;font-stretch:normal;font-family:NewComputerModern10;-inkscape-font-specification:NewComputerModern10;fill:#fff;fill-opacity:0;stroke:#000;stroke-width:13.182;stroke-linecap:round;stroke-dasharray:none;stroke-opacity:0;paint-order:markers stroke fill">λ</tspan></text><path d="M376.719 428.36c-3.17 0-6.975-1.269-11.414-4.44-19.658-13.316-39.315-47.558-59.607-102.725-26.632-81.8-45.656-142.676-57.704-183.893C222.63 64.38 187.754 29.503 144 32.674c-18.39 1.268-27.267 10.145-27.267 26.632 0 17.121 8.243 25.999 24.096 25.999 4.439 0 22.194-1.902 27.267-.634 15.853 3.17 29.803 14.584 43.12 35.51 8.877 13.95 15.852 27.267 20.291 39.315l6.341 18.39c-.634 1.902-5.707 17.12-15.853 44.387-22.828 61.509-58.338 142.041-105.896 242.865l.634 3.805c1.902 3.17 11.414 4.438 27.267 4.438 13.95 0 22.194-.634 24.73-2.536s12.048-20.292 28.535-55.802 38.047-87.507 65.314-155.991c2.536 8.243 5.707 19.023 10.145 32.973 22.194 72.923 42.486 125.555 60.241 156.626 12.048 20.926 24.73 31.706 38.047 31.706 17.12 0 25.364-8.878 25.364-27.267 0-12.682-9.511-24.73-19.657-24.73" aria-label="λ" style="font-size:634.112px;font-family:NewComputerModern10;-inkscape-font-specification:NewComputerModern10;font-variant-ligatures:discretionary-ligatures;letter-spacing:-24.3834px;word-spacing:-32.5815px;display:inline;fill:#fff;stroke:#000;stroke-width:13.182;stroke-linecap:round;stroke-linejoin:round;paint-order:markers stroke fill;filter:url(#j)"/></svg>